<?xml version="1.0" encoding="utf-8"?>
<!-- Generator: Adobe Illustrator 21.0.0, SVG Export Plug-In . SVG Version: 6.00 Build 0)  -->
<svg version="1.1" id="Layer_1" xmlns="http://www.w3.org/2000/svg" xmlns:xlink="http://www.w3.org/1999/xlink" x="0px" y="0px"
	 viewBox="0 0 150 130" style="enable-background:new 0 0 150 130;" xml:space="preserve">
<style type="text/css">
	.st0{fill:url(#SVGID_1_);}
	.st1{fill:url(#SVGID_2_);}
</style>
<g>
	<linearGradient id="SVGID_1_" gradientUnits="userSpaceOnUse" x1="89.125" y1="35.6099" x2="116.4628" y2="35.6099">
		<stop  offset="0" style="stop-color:#64C08A"/>
		<stop  offset="0.5" style="stop-color:#00A550"/>
		<stop  offset="1" style="stop-color:#00914C"/>
	</linearGradient>
	<path class="st0" d="M89.1,33.3c0,0,9.5-8.1,6.9-19.8c0,0,27.1,16.3,18.9,44.2L89.1,33.3z"/>
	<linearGradient id="SVGID_2_" gradientUnits="userSpaceOnUse" x1="8.917" y1="66.8594" x2="140.0107" y2="66.8594">
		<stop  offset="0" style="stop-color:#2BC4F3"/>
		<stop  offset="0.5" style="stop-color:#00AEEE"/>
		<stop  offset="1" style="stop-color:#0095DA"/>
	</linearGradient>
	<path class="st1" d="M8.9,16.8c0,0,32.6,9.2,42.2,46.6c0,0,15.4-11.9,33-8.8c0,0-44.4,14.5-58.9,62.9c0,0,37.8-59,114.8-50.4
		c0,0-14.5-13.4-25.1-9.5C114.9,57.7,87.7,10.2,8.9,16.8z"/>
</g>
</svg>
