<?xml version="1.0" encoding="utf-8"?>
<!-- Generator: Adobe Illustrator 21.0.0, SVG Export Plug-In . SVG Version: 6.00 Build 0)  -->
<svg version="1.1" id="Layer_1" xmlns="http://www.w3.org/2000/svg" xmlns:xlink="http://www.w3.org/1999/xlink" x="0px" y="0px"
	 viewBox="0 0 640 480" style="enable-background:new 0 0 640 480;" xml:space="preserve">
<style type="text/css">
	.st0{fill:#FFFFFF;}
	.st1{fill:#262C39;}
	.st2{fill:none;stroke:#000000;stroke-miterlimit:10;}
	.st3{fill:none;stroke:#262C39;stroke-miterlimit:10;}
</style>
<g id="XMLID_1_">
	<g>
		<path class="st0" d="M649,426l-9-0.1V412C644.1,417.6,647.1,422.5,649,426z"/>
		<path class="st0" d="M640,425.9V480H0v-61.1l108.9,1.2C127.1,441,158,451.7,188,421l223,2.4c23.4,28.3,54.8,15.1,75.4,0.8
			L640,425.9z"/>
		<path class="st0" d="M640,412v13.9l-153.6-1.7c9.6-6.7,16.9-13.6,19.7-16.6c25.2-26.2,47.3-42.7,70.3-41.6
			C607.7,367.4,635.5,405.9,640,412z"/>
		<path class="st1" d="M640,0v412c-4.5-6.1-32.3-44.6-63.6-46c-23-1-45.1,15.4-70.3,41.6c-2.8,2.9-10.1,9.9-19.7,16.6l-75.4-0.8
			c-4.6-5.6-8.9-12.8-12.7-21.9c-32.4-77.1-152.5-77.1-188.8-10.6c-7,12.8-14.2,22.6-21.4,30.1l-79.1-0.9c-0.4-0.4-0.7-0.9-1.1-1.3
			C86.9,393.8,43.5,332.5,0,402.5V0H640z"/>
		<path class="st1" d="M411,423.4l75.4,0.8C465.9,438.5,434.4,451.7,411,423.4z"/>
		<path class="st0" d="M411,423.4L188,421c7.3-7.4,14.5-17.3,21.4-30.1c36.3-66.5,156.4-66.5,188.8,10.6
			C402.1,410.6,406.4,417.8,411,423.4z"/>
		<path class="st1" d="M108.9,420.1L188,421C158,451.7,127.1,441,108.9,420.1z"/>
		<path class="st0" d="M108.9,420.1L0,418.9v-16.5c43.5-70,86.9-8.7,107.8,16.4C108.1,419.3,108.5,419.7,108.9,420.1z"/>
		<path class="st0" d="M0,402.5v16.5l-9-0.1C-6,412.7-3,407.3,0,402.5z"/>
	</g>
	<g>
		<polyline class="st2" points="0,402.5 0,0 640,0 640,412 		"/>
		<polyline class="st2" points="640,425.9 640,480 0,480 0,418.9 		"/>
		<path class="st3" d="M-9,418.8c3-6.1,6-11.6,9-16.4c43.5-70,86.9-8.7,107.8,16.4c0.4,0.4,0.7,0.9,1.1,1.3
			C127.1,441,158,451.7,188,421c7.3-7.4,14.5-17.3,21.4-30.1c36.3-66.5,156.4-66.5,188.8,10.6c3.8,9.1,8.1,16.3,12.7,21.9
			c23.4,28.3,54.8,15.1,75.4,0.8c9.6-6.7,16.9-13.6,19.7-16.6c25.2-26.2,47.3-42.7,70.3-41.6c31.3,1.4,59.1,39.9,63.6,46
			c4.1,5.6,7.1,10.5,9,14"/>
	</g>
</g>
</svg>
