<?xml version="1.0" encoding="iso-8859-1"?>
<!-- Generator: Adobe Illustrator 19.0.0, SVG Export Plug-In . SVG Version: 6.00 Build 0)  -->
<svg xmlns="http://www.w3.org/2000/svg" xmlns:xlink="http://www.w3.org/1999/xlink" version="1.1" id="Capa_1" x="0px" y="0px" viewBox="0 0 512 512" style="enable-background:new 0 0 512 512;" xml:space="preserve" width="512px" height="512px">
<g>
	<g>
		<polygon points="143.719,156.154 1.1,156.154 239.596,511.464 240.331,508.784   " fill="#35c0cd"/>
	</g>
</g>
<g>
	<g>
		<polygon points="295.72,0.536 216.28,0.536 175.98,125.928 336.021,125.928   " fill="#35c0cd"/>
	</g>
</g>
<g>
	<g>
		<polygon points="368.281,156.154 271.669,508.784 272.404,511.464 510.9,156.154   " fill="#35c0cd"/>
	</g>
</g>
<g>
	<g>
		<path d="M74.646,0.536c-5.628,0-10.791,3.127-13.396,8.117L0,125.928h144.231L184.532,0.536H74.646z" fill="#35c0cd"/>
	</g>
</g>
<g>
	<g>
		<polygon points="175.058,156.154 256,451.589 336.942,156.154   " fill="#35c0cd"/>
	</g>
</g>
<g>
	<g>
		<path d="M450.75,8.652c-2.605-4.988-7.768-8.117-13.396-8.117H327.468l40.301,125.392H512L450.75,8.652z" fill="#35c0cd"/>
	</g>
</g>
<g>
</g>
<g>
</g>
<g>
</g>
<g>
</g>
<g>
</g>
<g>
</g>
<g>
</g>
<g>
</g>
<g>
</g>
<g>
</g>
<g>
</g>
<g>
</g>
<g>
</g>
<g>
</g>
<g>
</g>
</svg>
