<svg xmlns="http://www.w3.org/2000/svg" xmlns:xlink="http://www.w3.org/1999/xlink" viewBox="0 0 955.3 248.4">
  <defs>
    <radialGradient id="radial-gradient" cx="-2967.57" cy="-48.36" r="25.95" gradientTransform="matrix(-0.06, -0.24, 5.29, -1.47, 387.06, -664.11)" gradientUnits="userSpaceOnUse">
      <stop offset="0"/>
      <stop offset="0.05" stop-color="#171717"/>
      <stop offset="0.2" stop-color="#545454"/>
      <stop offset="0.35" stop-color="#888"/>
      <stop offset="0.5" stop-color="#b3b3b3"/>
      <stop offset="0.64" stop-color="#d4d4d4"/>
      <stop offset="0.77" stop-color="#ececec"/>
      <stop offset="0.9" stop-color="#fafafa"/>
      <stop offset="1" stop-color="#fff"/>
    </radialGradient>
    <linearGradient id="linear-gradient" x1="-1205.22" y1="14.65" x2="-1144.05" y2="-45.93" gradientTransform="matrix(0.51, -0.87, 0.87, 0.51, 918.53, -892)" gradientUnits="userSpaceOnUse">
      <stop offset="0" stop-color="#fff"/>
      <stop offset="0.05" stop-color="#131313"/>
      <stop offset="0.16" stop-color="#606060"/>
      <stop offset="0.29" stop-color="#b5b5b5"/>
      <stop offset="0.38" stop-color="#eaeaea"/>
      <stop offset="0.42" stop-color="#fff"/>
      <stop offset="0.45" stop-color="#f8f8f8"/>
      <stop offset="0.5" stop-color="#e5e5e5"/>
      <stop offset="0.55" stop-color="#c7c7c7"/>
      <stop offset="0.61" stop-color="#9c9c9c"/>
      <stop offset="0.67" stop-color="#646464"/>
      <stop offset="0.74" stop-color="#222"/>
      <stop offset="0.77"/>
      <stop offset="0.89"/>
    </linearGradient>
    <radialGradient id="radial-gradient-2" cx="-1868" cy="-75.54" r="26.75" gradientTransform="matrix(-0.14, -0.2, 4.33, -3.3, 139.24, -571.62)" xlink:href="#radial-gradient"/>
    <linearGradient id="linear-gradient-2" x1="-1120.84" y1="-271.69" x2="-1057.79" y2="-334.12" gradientTransform="matrix(0.15, -0.99, 0.98, 0.15, 544.4, -977.73)" xlink:href="#linear-gradient"/>
    <radialGradient id="radial-gradient-3" cx="-3059.21" cy="15.41" r="40.91" gradientTransform="matrix(-0.05, -0.22, 4.8, -1.37, 405.5, -599.1)" xlink:href="#radial-gradient"/>
    <linearGradient id="linear-gradient-3" x1="-993.84" y1="293.84" x2="-897.35" y2="198.29" gradientTransform="matrix(0.47, -0.8, 0.78, 0.46, 886.89, -809.14)" xlink:href="#linear-gradient"/>
    <radialGradient id="radial-gradient-4" cx="-4112.9" cy="42.42" r="35.13" gradientTransform="matrix(-0.13, -0.19, 3.58, -3.77, 151.32, -546.14)" xlink:href="#radial-gradient"/>
    <linearGradient id="linear-gradient-4" x1="-1063" y1="565.5" x2="-980.18" y2="483.48" gradientTransform="matrix(0.08, -1.03, 0.86, 0.07, 482.16, -996.59)" xlink:href="#linear-gradient"/>
  </defs>
  <title>logo-text</title>
  <g style="isolation: isolate">
    <g id="Layer_1" data-name="Layer 1">
      <g>
        <path d="M428.4,239.3V177.7L378,245.3l-48.9-67v60.9H261.8V123.7l41-6.6,40.8-15.3,34.7,39.7L495.7,8.6V239.3Z" transform="translate(-36 -8.6)" fill="#00aeee"/>
        <g>
          <path d="M300,107.9c-12.1,3.4-16.9,5.6-26.5,9.8l-11.7,6c15.2-4,26,.8,42.9-3.9s24.7-12.9,39-17.7l-16.9.7C316.3,104.1,311.4,104.7,300,107.9Z" transform="translate(-36 -8.6)" opacity="0.6" fill="url(#radial-gradient)" style="mix-blend-mode: multiply"/>
          <path d="M343.4,102.2h.4c-9.4,3.7-27.8,14.7-35,42.7,0,0-22.2-24.4-46.9-21.1h0Z" transform="translate(-36 -8.6)" fill="url(#linear-gradient)"/>
        </g>
      </g>
      <g>
        <path d="M154,249V171H106v78H36V74.4L71,56.2l35-33.6V101h47l1-77h70V249Z" transform="translate(-36 -8.6)" fill="#00aeee"/>
        <g>
          <path d="M66.8,45.9C56.6,53.7,52.9,57.7,45.3,65.3L36.5,75.4c12.9-9.6,25-9,39.3-19.9s18.6-21.6,30.4-31.6L90.4,31C80.9,36.1,76.4,38.6,66.8,45.9Z" transform="translate(-36 -8.6)" opacity="0.6" fill="url(#radial-gradient-2)" style="mix-blend-mode: multiply"/>
          <path d="M105.9,24.1l.3-.2c-7.5,7.1-20.9,24.6-17.3,54,0,0-30.2-14.9-52.3-2.4h0Z" transform="translate(-36 -8.6)" fill="url(#linear-gradient-2)"/>
        </g>
      </g>
      <g>
        <path d="M681.3,256a104.4,104.4,0,0,1-14.3,1q-49.6,0-85-35.3t-35.3-85q0-45.4,29.6-78.9c1.8-2.1,16-2.6,18.8-2.9,34.6-2.8,34-16.9,67.1-16.9,4.8,0,5.3-4.4,10-3.7s4.2-3.6,8.8-2.5l12.8-5.7-15,61.7a58,58,0,0,0-5.9-1,51.6,51.6,0,0,0-5.6-.3q-20,0-35.5,14.5a47.2,47.2,0,0,0-15.4,35.8q0,21.7,15.4,36.3t35.5,14.3h2.9l3-.3a12.8,12.8,0,0,0,2.8-.3l2.8-.7,16.4,67.7Q688.4,255,681.3,256Z" transform="translate(-36 -8.6)" fill="#00aeee"/>
        <g>
          <path d="M631.2,34.8C613.9,39.7,607,43,593.3,49l-16.8,8.9c21.8-5.9,37.3.8,61.4-6.1s35.4-18.7,55.9-25.8l-24.2,1.2C654.6,29.2,647.5,30.1,631.2,34.8Z" transform="translate(-36 -8.6)" opacity="0.6" fill="url(#radial-gradient-3)" style="mix-blend-mode: multiply"/>
          <path d="M693.3,26.2l.5.3c-13.5,5.4-39.9,21-50.4,61.2,0,0-31.7-34.6-67-29.6l.2-.4Z" transform="translate(-36 -8.6)" fill="url(#linear-gradient-3)"/>
        </g>
      </g>
      <g>
        <path d="M869.5,56.6l-7.4,10.6-2.7,6.4-5,9.7-4.1,8.6-8.3,4.2L807,118.8l-8.9,15.4-1.7,3.2-42.1,72.8-.2.3h0l-10.8,18.7h69.9l10-16.8h88.1l9.7,16.8h70.2L882.7,41.1ZM841.2,166.4l26-45.5,26,45.5Z" transform="translate(-36 -8.6)" fill="#00aeee"/>
        <g>
          <path d="M839.4,75.4c-11.1,11.7-15.1,17.5-23.1,28.5l-9.4,14.9c14.1-14.4,27.9-15.3,43.4-31.6S870,55.9,882.7,41L865.2,52.5C854.8,60.5,849.8,64.4,839.4,75.4Z" transform="translate(-36 -8.6)" opacity="0.6" fill="url(#radial-gradient-4)" style="mix-blend-mode: multiply"/>
          <path d="M882.4,41.3h.5c-8.1,10.4-22.2,35.1-16.1,74.3,0,0-35.5-16.1-59.9,3.4v-.4Z" transform="translate(-36 -8.6)" fill="url(#linear-gradient-4)"/>
        </g>
      </g>
    </g>
  </g>
</svg>
